<svg width="173" height="173" viewBox="0 0 173 173" fill="none" xmlns="http://www.w3.org/2000/svg">
<path d="M173 86.5C173 134.273 134.273 173 86.5 173C38.7274 173 0 134.273 0 86.5C0 38.7274 38.7274 0 86.5 0C134.273 0 173 38.7274 173 86.5Z" fill="#7E54C6"/>
<path d="M134.359 60.4122L90.1875 37.822C88.0422 36.726 85.7031 36.726 83.5578 37.822L39.5078 60.4122C38.0059 61.1935 37 63.2471 37 65.5686C37 67.8902 38.0059 69.955 39.5078 70.7229L48.8859 75.5244C47.0281 79.0513 45.7203 83.1497 45.05 87.5673C43.2578 88.6499 42 91.1946 42 94.1412C42 96.3629 42.7522 98.2686 43.8656 99.5789L39.9859 132.839C39.7313 135.013 40.9062 137 42.4516 137H51.5484C53.0933 137 54.2687 135.018 54.0141 132.841L50.1344 99.5811C51.2484 98.2708 52 96.1725 52 94.1412C52 91.8442 51.1916 89.8932 50.0125 88.5852C50.6769 84.6207 52.025 81.0358 53.9094 78.087L83.6906 93.3175C85.8359 94.4135 88.175 94.4135 90.3203 93.3175L134.492 70.7273C136 69.9438 137 67.8902 137 65.5686C137 63.2471 136 61.1935 134.359 60.4122ZM91.8594 100.034C90.3906 100.86 88.7031 101.284 87 101.284C85.2938 101.284 83.6109 100.868 82 100.044L59.3125 88.449L57 120.325C57 129.544 70.2969 137 87 137C103.422 137 117 129.544 117 120.332L114.691 88.4334L91.8594 100.034Z" fill="white" fill-opacity="0.9"/>
</svg>
