<svg width="173" height="173" viewBox="0 0 173 173" fill="none" xmlns="http://www.w3.org/2000/svg">
<path d="M173 86.5C173 134.273 134.273 173 86.5 173C38.7274 173 0 134.273 0 86.5C0 38.7274 38.7274 0 86.5 0C134.273 0 173 38.7274 173 86.5Z" fill="#7BCD2C"/>
<path d="M136.965 86.3576C136.965 89.4826 134.361 91.9306 131.41 91.9306H125.854L125.976 119.726C125.976 120.212 125.941 120.663 125.889 121.132V123.944C125.889 127.781 122.781 130.889 118.944 130.889H116.167C115.976 130.889 115.785 130.733 115.594 130.872C115.351 130.733 115.108 130.889 114.865 130.889H105.056C101.219 130.889 98.1111 127.781 98.1111 123.944V108.667C98.1111 105.594 95.6285 103.111 92.5556 103.111H81.4444C78.3715 103.111 75.8889 105.594 75.8889 108.667V123.944C75.8889 127.781 72.7812 130.889 68.9444 130.889H59.2396C58.9792 130.889 58.7188 130.872 58.4583 130.854C58.25 130.872 58.0417 130.889 57.8333 130.889H55.0556C51.2205 130.889 48.1111 127.781 48.1111 123.944V104.5C48.1111 104.344 48.1163 104.17 48.1267 104.014V91.9306H42.5642C39.434 91.9306 37 89.4826 37 86.3576C37 84.7951 37.5215 83.4062 38.7378 82.191L83.25 43.3917C84.4653 42.174 85.8542 42 87.0694 42C88.2847 42 89.6736 42.3479 90.7326 43.2177L135.056 82.191C136.444 83.4062 137.156 84.7951 136.965 86.3576Z" fill="white" fill-opacity="0.9"/>
</svg>
