<svg width="173" height="173" viewBox="0 0 173 173" fill="none" xmlns="http://www.w3.org/2000/svg">
<path d="M173 86.5C173 134.273 134.273 173 86.5 173C38.7274 173 0 134.273 0 86.5C0 38.7274 38.7274 0 86.5 0C134.273 0 173 38.7274 173 86.5Z" fill="#FFA2A2"/>
<path d="M64.5002 48.375C64.5002 43.1973 67.8596 39 72.0002 39C76.1408 39 79.5002 43.1973 79.5002 48.375C79.5002 53.5527 76.1408 57.75 72.0002 57.75C67.8596 57.75 64.5002 53.5527 64.5002 48.375ZM65.7502 139C62.9846 139 60.7502 136.207 60.7502 132.75V89.1758L56.2861 98.4727C54.8643 101.422 51.7924 102.379 49.4252 100.602C47.058 98.8242 46.2924 94.9961 47.7158 92.0273L56.8205 73.1016C59.5315 67.457 64.4065 64 69.6721 64H92.0002V48.375C92.0002 43.1973 95.3596 39.0001 99.5002 39.0001H134.5C138.641 39.0001 142 43.1973 142 48.375V92.125C142 97.3008 138.641 101.5 134.5 101.5H99.5002C95.3596 101.5 92.0002 97.3008 92.0002 92.125V82.75H102V89H132V51.5H102V64H104.5C107.266 64 109.5 66.793 109.5 70.25C109.5 73.707 107.266 76.5 104.5 76.5H83.2502V132.75C83.2502 136.207 81.0158 139 78.2502 139C75.4846 139 73.2502 136.207 73.2502 132.75V107.75H70.7502V132.75C70.7502 136.207 68.5158 139 65.7502 139Z" fill="#F5F5F5" fill-opacity="0.9"/>
</svg>
