<svg width="288" height="46" viewBox="0 0 288 46" fill="none" xmlns="http://www.w3.org/2000/svg">
<path d="M24 0L29.6128 17.2746H47.7764L33.0818 27.9508L38.6946 45.2254L24 34.5491L9.30535 45.2254L14.9182 27.9508L0.223572 17.2746H18.3871L24 0Z" fill="#F9FD2A"/>
<path d="M144 0L149.613 17.2746H167.776L153.082 27.9508L158.695 45.2254L144 34.5491L129.305 45.2254L134.918 27.9508L120.224 17.2746H138.387L144 0Z" fill="#F9FD2A"/>
<path d="M84 0L89.6128 17.2746H107.776L93.0818 27.9508L98.6946 45.2254L84 34.5491L69.3054 45.2254L74.9182 27.9508L60.2236 17.2746H78.3871L84 0Z" fill="#F9FD2A"/>
<path d="M204 0L209.613 17.2746H227.776L213.082 27.9508L218.695 45.2254L204 34.5491L189.305 45.2254L194.918 27.9508L180.224 17.2746H198.387L204 0Z" fill="#F9FD2A"/>
<path d="M264 0L269.613 17.2746H287.776L273.082 27.9508L278.695 45.2254L264 34.5491L249.305 45.2254L254.918 27.9508L240.224 17.2746H258.387L264 0Z" fill="#F9FD2A"/>
<path d="M29.6128 17.7746H46.2376L32.7879 27.5463L32.494 27.7599L32.6062 28.1054L37.7436 43.9164L24.2939 34.1446L24 33.9311L23.7061 34.1446L10.2564 43.9164L15.3937 28.1054L15.506 27.7599L15.2121 27.5463L1.76241 17.7746H18.3871H18.7504L18.8627 17.4291L24 1.61804L29.1373 17.4291L29.2496 17.7746H29.6128ZM149.613 17.7746H166.238L152.788 27.5463L152.494 27.7599L152.606 28.1054L157.744 43.9164L144.294 34.1446L144 33.9311L143.706 34.1446L130.256 43.9164L135.394 28.1054L135.506 27.7599L135.212 27.5463L121.762 17.7746H138.387H138.75L138.863 17.4291L144 1.61802L149.137 17.4291L149.25 17.7746H149.613ZM84 1.61802L89.1373 17.4291L89.2496 17.7746H89.6128H106.238L92.7879 27.5463L92.494 27.7599L92.6062 28.1054L97.7436 43.9164L84.2939 34.1446L84 33.9311L83.7061 34.1446L70.2564 43.9164L75.3937 28.1054L75.506 27.7599L75.2121 27.5463L61.7624 17.7746H78.3871H78.7504L78.8627 17.4291L84 1.61802ZM209.613 17.7746H226.238L212.788 27.5463L212.494 27.7599L212.606 28.1054L217.744 43.9164L204.294 34.1446L204 33.9311L203.706 34.1446L190.256 43.9164L195.394 28.1054L195.506 27.7599L195.212 27.5463L181.762 17.7746H198.387H198.75L198.863 17.4291L204 1.61802L209.137 17.4291L209.25 17.7746H209.613ZM264 1.61803L269.137 17.4291L269.25 17.7746H269.613H286.238L272.788 27.5463L272.494 27.7599L272.606 28.1054L277.744 43.9164L264.294 34.1446L264 33.9311L263.706 34.1446L250.256 43.9164L255.394 28.1054L255.506 27.7599L255.212 27.5463L241.762 17.7746H258.387H258.75L258.863 17.4291L264 1.61803Z" stroke="black" stroke-opacity="0.1"/>
</svg>
